<mxfile>
    <diagram id="AhWlzKmKPv5T9BWCtDrj" name="Page-1">
        <mxGraphModel dx="875" dy="506" grid="1" gridSize="10" guides="1" tooltips="1" connect="1" arrows="1" fold="1" page="1" pageScale="1" pageWidth="850" pageHeight="1100" math="0" shadow="0">
            <root>
                <mxCell id="0"/>
                <mxCell id="1" parent="0"/>
                <mxCell id="69" value="z" style="ellipse;whiteSpace=wrap;html=1;aspect=fixed;sketch=1;fillColor=#1ba1e2;strokeColor=#006EAF;fontSize=20;labelBackgroundColor=none;fontColor=#000000;" parent="1" vertex="1">
                    <mxGeometry x="309.65" y="75.66" width="40" height="40" as="geometry"/>
                </mxCell>
                <mxCell id="70" value="" style="endArrow=none;html=1;exitX=0.5;exitY=0;exitDx=0;exitDy=0;sketch=1;labelBackgroundColor=none;fillColor=#1ba1e2;strokeColor=#006EAF;fontColor=#000000;" parent="1" source="69" edge="1">
                    <mxGeometry x="299.65" y="55.66" width="50" height="50" as="geometry">
                        <mxPoint x="319.65" y="65.66" as="sourcePoint"/>
                        <mxPoint x="329.65" y="55.66" as="targetPoint"/>
                    </mxGeometry>
                </mxCell>
                <mxCell id="71" value="p" style="edgeLabel;html=1;align=center;verticalAlign=middle;resizable=0;points=[];labelBackgroundColor=none;fontColor=#000000;" parent="70" vertex="1" connectable="0">
                    <mxGeometry x="-0.0067" y="-1" relative="1" as="geometry">
                        <mxPoint x="-1" y="-26" as="offset"/>
                    </mxGeometry>
                </mxCell>
                <mxCell id="72" value="" style="endArrow=none;html=1;sketch=1;labelBackgroundColor=none;fillColor=#1ba1e2;strokeColor=#006EAF;exitX=0;exitY=1;exitDx=0;exitDy=0;fontColor=#000000;" parent="1" source="69" edge="1">
                    <mxGeometry x="369.65" y="61.370000000000005" width="50" height="50" as="geometry">
                        <mxPoint x="349.65" y="115.65999999999998" as="sourcePoint"/>
                        <mxPoint x="289.65" y="133.03999999999996" as="targetPoint"/>
                    </mxGeometry>
                </mxCell>
                <mxCell id="73" value="λ" style="edgeLabel;html=1;align=center;verticalAlign=middle;resizable=0;points=[];labelBackgroundColor=none;fontColor=#000000;" parent="72" vertex="1" connectable="0">
                    <mxGeometry x="-0.0067" y="-1" relative="1" as="geometry">
                        <mxPoint x="-20.37" y="25.21" as="offset"/>
                    </mxGeometry>
                </mxCell>
                <mxCell id="74" value="" style="endArrow=none;html=1;exitX=1;exitY=1;exitDx=0;exitDy=0;sketch=1;entryX=0;entryY=0;entryDx=0;entryDy=0;labelBackgroundColor=none;fillColor=#1ba1e2;strokeColor=#006EAF;fontColor=#000000;" parent="1" source="69" target="75" edge="1">
                    <mxGeometry x="391.77" y="54.69999999999999" width="50" height="50" as="geometry">
                        <mxPoint x="487.62786437626903" y="118.84213562373095" as="sourcePoint"/>
                        <mxPoint x="461.77" y="134.7" as="targetPoint"/>
                    </mxGeometry>
                </mxCell>
                <mxCell id="75" value="y" style="ellipse;whiteSpace=wrap;html=1;aspect=fixed;sketch=1;fillColor=#1ba1e2;strokeColor=#006EAF;fontSize=20;labelBackgroundColor=none;fontColor=#000000;" parent="1" vertex="1">
                    <mxGeometry x="364.1099999999999" y="133.40999999999997" width="40" height="40" as="geometry"/>
                </mxCell>
                <mxCell id="78" value="" style="endArrow=none;html=1;sketch=1;labelBackgroundColor=none;fillColor=#1ba1e2;strokeColor=#006EAF;entryX=0;entryY=0;entryDx=0;entryDy=0;fontColor=#000000;" parent="1" source="75" target="79" edge="1">
                    <mxGeometry x="294.10999999999996" y="53.41" width="50" height="50" as="geometry">
                        <mxPoint x="469.96786437626895" y="193.41213562373093" as="sourcePoint"/>
                        <mxPoint x="424.1099999999999" y="193.40999999999997" as="targetPoint"/>
                    </mxGeometry>
                </mxCell>
                <mxCell id="79" value="x" style="ellipse;whiteSpace=wrap;html=1;aspect=fixed;sketch=1;fillColor=#1ba1e2;strokeColor=#006EAF;fontSize=20;labelBackgroundColor=none;fontColor=#000000;" parent="1" vertex="1">
                    <mxGeometry x="409.81999999999994" y="193.40999999999997" width="40" height="40" as="geometry"/>
                </mxCell>
                <mxCell id="80" value="" style="endArrow=none;html=1;exitX=0;exitY=1;exitDx=0;exitDy=0;sketch=1;labelBackgroundColor=none;fillColor=#1ba1e2;strokeColor=#006EAF;fontColor=#000000;" parent="1" source="79" edge="1">
                    <mxGeometry x="333.9599999999999" y="109.27" width="50" height="50" as="geometry">
                        <mxPoint x="409.81786437626533" y="223.41213562373497" as="sourcePoint"/>
                        <mxPoint x="399.81999999999994" y="253.41000000000003" as="targetPoint"/>
                    </mxGeometry>
                </mxCell>
                <mxCell id="81" value="β" style="edgeLabel;html=1;align=center;verticalAlign=middle;resizable=0;points=[];labelBackgroundColor=none;fontColor=#000000;" parent="80" vertex="1" connectable="0">
                    <mxGeometry x="-0.0067" y="-1" relative="1" as="geometry">
                        <mxPoint x="-17.24" y="23.639999999999997" as="offset"/>
                    </mxGeometry>
                </mxCell>
                <mxCell id="82" value="" style="endArrow=none;html=1;exitX=1;exitY=1;exitDx=0;exitDy=0;sketch=1;labelBackgroundColor=none;fillColor=#1ba1e2;strokeColor=#006EAF;fontColor=#000000;" parent="1" source="79" edge="1">
                    <mxGeometry x="343.9599999999999" y="119.27" width="50" height="50" as="geometry">
                        <mxPoint x="425.677864376269" y="237.55213562373098" as="sourcePoint"/>
                        <mxPoint x="469.81999999999994" y="253.41000000000003" as="targetPoint"/>
                    </mxGeometry>
                </mxCell>
                <mxCell id="83" value="α" style="edgeLabel;html=1;align=center;verticalAlign=middle;resizable=0;points=[];labelBackgroundColor=none;fontColor=#000000;" parent="82" vertex="1" connectable="0">
                    <mxGeometry x="-0.0067" y="-1" relative="1" as="geometry">
                        <mxPoint x="22.64" y="18.22" as="offset"/>
                    </mxGeometry>
                </mxCell>
                <mxCell id="86" value="" style="endArrow=none;html=1;sketch=1;labelBackgroundColor=none;fillColor=#1ba1e2;strokeColor=#006EAF;fontColor=#000000;" parent="1" edge="1">
                    <mxGeometry x="258.25" y="129.26999999999998" width="50" height="50" as="geometry">
                        <mxPoint x="369.65" y="168.03999999999996" as="sourcePoint"/>
                        <mxPoint x="349.65" y="193.03999999999996" as="targetPoint"/>
                    </mxGeometry>
                </mxCell>
                <mxCell id="87" value="γ" style="edgeLabel;html=1;align=center;verticalAlign=middle;resizable=0;points=[];labelBackgroundColor=none;fontColor=#000000;" parent="86" vertex="1" connectable="0">
                    <mxGeometry x="-0.0067" y="-1" relative="1" as="geometry">
                        <mxPoint x="-15.309999999999999" y="23.03" as="offset"/>
                    </mxGeometry>
                </mxCell>
                <mxCell id="88" value="" style="rounded=1;whiteSpace=wrap;html=1;rotation=45;arcSize=50;fillColor=none;dashed=1;fontColor=#000000;" parent="1" vertex="1">
                    <mxGeometry x="292.65" y="101.03999999999999" width="130" height="47.79" as="geometry"/>
                </mxCell>
                <mxCell id="89" value="左旋转&amp;nbsp;" style="text;html=1;align=center;verticalAlign=middle;resizable=0;points=[];autosize=1;fontSize=10;fontColor=#000000;" parent="1" vertex="1">
                    <mxGeometry x="359.11" y="59.03999999999999" width="50" height="20" as="geometry"/>
                </mxCell>
                <mxCell id="109" value="" style="group;fontColor=#000000;" parent="1" vertex="1" connectable="0">
                    <mxGeometry x="505" y="55.66" width="195.14999999999998" height="140" as="geometry"/>
                </mxCell>
                <mxCell id="91" value="y" style="ellipse;whiteSpace=wrap;html=1;aspect=fixed;sketch=1;fillColor=#1ba1e2;strokeColor=#006EAF;fontSize=20;labelBackgroundColor=none;fontColor=#000000;" parent="109" vertex="1">
                    <mxGeometry x="74.95000000000005" y="20" width="40" height="40" as="geometry"/>
                </mxCell>
                <mxCell id="92" value="" style="endArrow=none;html=1;exitX=0.5;exitY=0;exitDx=0;exitDy=0;sketch=1;labelBackgroundColor=none;fillColor=#1ba1e2;strokeColor=#006EAF;fontColor=#000000;" parent="109" source="91" edge="1">
                    <mxGeometry x="64.95000000000005" width="50" height="50" as="geometry">
                        <mxPoint x="84.95000000000005" y="10" as="sourcePoint"/>
                        <mxPoint x="94.95000000000005" as="targetPoint"/>
                    </mxGeometry>
                </mxCell>
                <mxCell id="93" value="p" style="edgeLabel;html=1;align=center;verticalAlign=middle;resizable=0;points=[];labelBackgroundColor=none;fontColor=#000000;" parent="92" vertex="1" connectable="0">
                    <mxGeometry x="-0.0067" y="-1" relative="1" as="geometry">
                        <mxPoint x="-1" y="-26" as="offset"/>
                    </mxGeometry>
                </mxCell>
                <mxCell id="94" value="" style="endArrow=none;html=1;sketch=1;labelBackgroundColor=none;fillColor=#1ba1e2;strokeColor=#006EAF;exitX=1;exitY=1;exitDx=0;exitDy=0;fontColor=#000000;" parent="109" source="91" target="101" edge="1">
                    <mxGeometry x="134.95000000000005" y="5.710000000000008" width="50" height="50" as="geometry">
                        <mxPoint x="114.95000000000005" y="60" as="sourcePoint"/>
                        <mxPoint x="134.95000000000005" y="75.71000000000001" as="targetPoint"/>
                    </mxGeometry>
                </mxCell>
                <mxCell id="96" value="" style="endArrow=none;html=1;exitX=0;exitY=1;exitDx=0;exitDy=0;sketch=1;entryX=1;entryY=0;entryDx=0;entryDy=0;labelBackgroundColor=none;fillColor=#1ba1e2;strokeColor=#006EAF;fontColor=#000000;" parent="109" source="91" target="97" edge="1">
                    <mxGeometry x="64.95000000000005" width="50" height="50" as="geometry">
                        <mxPoint x="160.8078643762691" y="64.14213562373095" as="sourcePoint"/>
                        <mxPoint x="134.95000000000005" y="80" as="targetPoint"/>
                    </mxGeometry>
                </mxCell>
                <mxCell id="97" value="z" style="ellipse;whiteSpace=wrap;html=1;aspect=fixed;sketch=1;fillColor=#1ba1e2;strokeColor=#006EAF;fontSize=20;labelBackgroundColor=none;fontColor=#000000;" parent="109" vertex="1">
                    <mxGeometry x="20" y="80" width="40" height="40" as="geometry"/>
                </mxCell>
                <mxCell id="98" value="" style="endArrow=none;html=1;exitX=0;exitY=1;exitDx=0;exitDy=0;sketch=1;labelBackgroundColor=none;fillColor=#1ba1e2;strokeColor=#006EAF;fontColor=#000000;" parent="109" source="97" edge="1">
                    <mxGeometry x="-50" width="50" height="50" as="geometry">
                        <mxPoint x="19.997864376269035" y="120.00213562373096" as="sourcePoint"/>
                        <mxPoint y="140" as="targetPoint"/>
                    </mxGeometry>
                </mxCell>
                <mxCell id="99" value="λ" style="edgeLabel;html=1;align=center;verticalAlign=middle;resizable=0;points=[];labelBackgroundColor=none;fontColor=#000000;" parent="98" vertex="1" connectable="0">
                    <mxGeometry x="-0.0067" y="-1" relative="1" as="geometry">
                        <mxPoint x="-17.47" y="18.89" as="offset"/>
                    </mxGeometry>
                </mxCell>
                <mxCell id="100" value="" style="endArrow=none;html=1;exitX=1;exitY=1;exitDx=0;exitDy=0;sketch=1;labelBackgroundColor=none;fillColor=#1ba1e2;strokeColor=#006EAF;fontColor=#000000;" parent="109" source="97" edge="1">
                    <mxGeometry x="-50" width="50" height="50" as="geometry">
                        <mxPoint x="125.85786437626905" y="140.00213562373096" as="sourcePoint"/>
                        <mxPoint x="80" y="140" as="targetPoint"/>
                    </mxGeometry>
                </mxCell>
                <mxCell id="108" value="&lt;span style=&quot;font-size: 11px&quot;&gt;γ&lt;/span&gt;" style="edgeLabel;html=1;align=center;verticalAlign=middle;resizable=0;points=[];fontSize=10;fontColor=#000000;" parent="100" vertex="1" connectable="0">
                    <mxGeometry relative="1" as="geometry">
                        <mxPoint x="20.05" y="21.09" as="offset"/>
                    </mxGeometry>
                </mxCell>
                <mxCell id="101" value="x" style="ellipse;whiteSpace=wrap;html=1;aspect=fixed;sketch=1;fillColor=#1ba1e2;strokeColor=#006EAF;fontSize=20;labelBackgroundColor=none;fontColor=#000000;" parent="109" vertex="1">
                    <mxGeometry x="135.14999999999998" y="80" width="40" height="40" as="geometry"/>
                </mxCell>
                <mxCell id="102" value="" style="endArrow=none;html=1;exitX=0;exitY=1;exitDx=0;exitDy=0;sketch=1;labelBackgroundColor=none;fillColor=#1ba1e2;strokeColor=#006EAF;fontColor=#000000;" parent="109" source="101" edge="1">
                    <mxGeometry x="59.29000000000002" y="-4.140000000000001" width="50" height="50" as="geometry">
                        <mxPoint x="135.14786437626537" y="110.00213562373494" as="sourcePoint"/>
                        <mxPoint x="125.15000000000009" y="140" as="targetPoint"/>
                    </mxGeometry>
                </mxCell>
                <mxCell id="103" value="&lt;span style=&quot;font-size: 10px&quot;&gt;β&lt;/span&gt;" style="edgeLabel;html=1;align=center;verticalAlign=middle;resizable=0;points=[];labelBackgroundColor=none;fontColor=#000000;" parent="102" vertex="1" connectable="0">
                    <mxGeometry x="-0.0067" y="-1" relative="1" as="geometry">
                        <mxPoint x="-17.24" y="23.639999999999997" as="offset"/>
                    </mxGeometry>
                </mxCell>
                <mxCell id="104" value="" style="endArrow=none;html=1;exitX=1;exitY=1;exitDx=0;exitDy=0;sketch=1;labelBackgroundColor=none;fillColor=#1ba1e2;strokeColor=#006EAF;fontColor=#000000;" parent="109" source="101" edge="1">
                    <mxGeometry x="69.29000000000008" y="5.859999999999999" width="50" height="50" as="geometry">
                        <mxPoint x="151.00786437626914" y="124.14213562373095" as="sourcePoint"/>
                        <mxPoint x="195.14999999999998" y="140" as="targetPoint"/>
                    </mxGeometry>
                </mxCell>
                <mxCell id="105" value="α" style="edgeLabel;html=1;align=center;verticalAlign=middle;resizable=0;points=[];labelBackgroundColor=none;fontColor=#000000;" parent="104" vertex="1" connectable="0">
                    <mxGeometry x="-0.0067" y="-1" relative="1" as="geometry">
                        <mxPoint x="22.64" y="18.22" as="offset"/>
                    </mxGeometry>
                </mxCell>
                <mxCell id="2" value="z" style="ellipse;whiteSpace=wrap;html=1;aspect=fixed;sketch=1;fillColor=#1ba1e2;strokeColor=#006EAF;fontSize=20;labelBackgroundColor=none;fontColor=#000000;" parent="1" vertex="1">
                    <mxGeometry x="110.4" y="76" width="40" height="40" as="geometry"/>
                </mxCell>
                <mxCell id="4" value="" style="endArrow=none;html=1;exitX=0.5;exitY=0;exitDx=0;exitDy=0;sketch=1;labelBackgroundColor=none;fillColor=#1ba1e2;strokeColor=#006EAF;fontColor=#000000;" parent="1" source="2" edge="1">
                    <mxGeometry x="100.4" y="56" width="50" height="50" as="geometry">
                        <mxPoint x="120.4" y="66" as="sourcePoint"/>
                        <mxPoint x="130.4" y="56" as="targetPoint"/>
                    </mxGeometry>
                </mxCell>
                <mxCell id="5" value="p" style="edgeLabel;html=1;align=center;verticalAlign=middle;resizable=0;points=[];labelBackgroundColor=none;fontColor=#000000;" parent="4" vertex="1" connectable="0">
                    <mxGeometry x="-0.0067" y="-1" relative="1" as="geometry">
                        <mxPoint x="-1" y="-26" as="offset"/>
                    </mxGeometry>
                </mxCell>
                <mxCell id="6" value="" style="endArrow=none;html=1;sketch=1;labelBackgroundColor=none;fillColor=#1ba1e2;strokeColor=#006EAF;exitX=1;exitY=1;exitDx=0;exitDy=0;entryX=0;entryY=0;entryDx=0;entryDy=0;fontColor=#000000;" parent="1" source="2" edge="1" target="10">
                    <mxGeometry x="170.4" y="61.71" width="50" height="50" as="geometry">
                        <mxPoint x="150.4" y="116" as="sourcePoint"/>
                        <mxPoint x="170.4" y="131.71" as="targetPoint"/>
                    </mxGeometry>
                </mxCell>
                <mxCell id="10" value="x" style="ellipse;whiteSpace=wrap;html=1;aspect=fixed;sketch=1;fillColor=#1ba1e2;strokeColor=#006EAF;fontSize=20;labelBackgroundColor=none;fontColor=#000000;" parent="1" vertex="1">
                    <mxGeometry x="164.6" y="130.37" width="40" height="40" as="geometry"/>
                </mxCell>
                <mxCell id="58" value="y" style="ellipse;whiteSpace=wrap;html=1;aspect=fixed;sketch=1;fillColor=#1ba1e2;strokeColor=#006EAF;fontSize=20;labelBackgroundColor=none;fontColor=#000000;" parent="1" vertex="1">
                    <mxGeometry x="110.16999999999999" y="182.75" width="40" height="40" as="geometry"/>
                </mxCell>
                <mxCell id="59" value="" style="endArrow=none;html=1;exitX=0;exitY=1;exitDx=0;exitDy=0;sketch=1;labelBackgroundColor=none;fillColor=#1ba1e2;strokeColor=#006EAF;fontColor=#000000;" parent="1" source="58" edge="1">
                    <mxGeometry x="34.31" y="98.61000000000001" width="50" height="50" as="geometry">
                        <mxPoint x="110.16786437626536" y="212.75213562373494" as="sourcePoint"/>
                        <mxPoint x="100.17000000000002" y="242.75000000000003" as="targetPoint"/>
                    </mxGeometry>
                </mxCell>
                <mxCell id="60" value="γ" style="edgeLabel;html=1;align=center;verticalAlign=middle;resizable=0;points=[];labelBackgroundColor=none;fontColor=#000000;" parent="59" vertex="1" connectable="0">
                    <mxGeometry x="-0.0067" y="-1" relative="1" as="geometry">
                        <mxPoint x="-17.24" y="23.639999999999997" as="offset"/>
                    </mxGeometry>
                </mxCell>
                <mxCell id="61" value="" style="endArrow=none;html=1;exitX=1;exitY=1;exitDx=0;exitDy=0;sketch=1;labelBackgroundColor=none;fillColor=#1ba1e2;strokeColor=#006EAF;fontColor=#000000;" parent="1" source="58" edge="1">
                    <mxGeometry x="44.31000000000001" y="108.61000000000001" width="50" height="50" as="geometry">
                        <mxPoint x="126.02786437626906" y="226.89213562373095" as="sourcePoint"/>
                        <mxPoint x="170.17000000000002" y="242.75000000000003" as="targetPoint"/>
                    </mxGeometry>
                </mxCell>
                <mxCell id="62" value="β" style="edgeLabel;html=1;align=center;verticalAlign=middle;resizable=0;points=[];labelBackgroundColor=none;fontColor=#000000;" parent="61" vertex="1" connectable="0">
                    <mxGeometry x="-0.0067" y="-1" relative="1" as="geometry">
                        <mxPoint x="22.64" y="18.22" as="offset"/>
                    </mxGeometry>
                </mxCell>
                <mxCell id="66" value="右旋转&amp;nbsp;" style="text;html=1;align=center;verticalAlign=middle;resizable=0;points=[];autosize=1;fontSize=10;fontColor=#000000;" parent="1" vertex="1">
                    <mxGeometry x="180" y="96" width="50" height="20" as="geometry"/>
                </mxCell>
                <mxCell id="111" value="" style="endArrow=none;html=1;exitX=0.73;exitY=0.956;exitDx=0;exitDy=0;sketch=1;labelBackgroundColor=none;fillColor=#1ba1e2;strokeColor=#006EAF;exitPerimeter=0;fontColor=#000000;" edge="1" parent="1" source="10">
                    <mxGeometry x="43.910000000000004" y="130.08" width="50" height="50" as="geometry">
                        <mxPoint x="143.9121356237077" y="238.36213562370767" as="sourcePoint"/>
                        <mxPoint x="219.6" y="192.75" as="targetPoint"/>
                    </mxGeometry>
                </mxCell>
                <mxCell id="112" value="α" style="edgeLabel;html=1;align=center;verticalAlign=middle;resizable=0;points=[];labelBackgroundColor=none;fontColor=#000000;" vertex="1" connectable="0" parent="111">
                    <mxGeometry x="-0.0067" y="-1" relative="1" as="geometry">
                        <mxPoint x="22.29" y="16.54" as="offset"/>
                    </mxGeometry>
                </mxCell>
                <mxCell id="63" value="" style="rounded=1;whiteSpace=wrap;html=1;rotation=-45;arcSize=50;fillColor=none;dashed=1;fontColor=#000000;" parent="1" vertex="1">
                    <mxGeometry x="92" y="152.77" width="130.94" height="47.79" as="geometry"/>
                </mxCell>
                <mxCell id="113" value="" style="endArrow=none;html=1;exitX=0;exitY=1;exitDx=0;exitDy=0;sketch=1;labelBackgroundColor=none;fillColor=#1ba1e2;strokeColor=#006EAF;fontColor=#000000;" edge="1" parent="1" source="10" target="63">
                    <mxGeometry x="94.6" y="50.37" width="50" height="50" as="geometry">
                        <mxPoint x="170.45786437626907" y="164.51213562373084" as="sourcePoint"/>
                        <mxPoint x="144.6824770234689" y="188.98816833981437" as="targetPoint"/>
                    </mxGeometry>
                </mxCell>
                <mxCell id="114" value="" style="endArrow=none;html=1;exitX=0;exitY=1;exitDx=0;exitDy=0;sketch=1;labelBackgroundColor=none;fillColor=#1ba1e2;strokeColor=#006EAF;fontColor=#000000;" edge="1" parent="1" source="2">
                    <mxGeometry x="44.31" y="108.61000000000001" width="50" height="50" as="geometry">
                        <mxPoint x="126.0278643762922" y="226.892135623708" as="sourcePoint"/>
                        <mxPoint x="80" y="150" as="targetPoint"/>
                    </mxGeometry>
                </mxCell>
                <mxCell id="115" value="λ" style="edgeLabel;html=1;align=center;verticalAlign=middle;resizable=0;points=[];labelBackgroundColor=none;fontColor=#000000;" vertex="1" connectable="0" parent="114">
                    <mxGeometry x="-0.0067" y="-1" relative="1" as="geometry">
                        <mxPoint x="-27.419999999999998" y="31.639999999999997" as="offset"/>
                    </mxGeometry>
                </mxCell>
            </root>
        </mxGraphModel>
    </diagram>
</mxfile>